<svg width="24" height="24" xmlns="http://www.w3.org/2000/svg">

 <g>
  <title>background</title>
  <rect fill="none" id="canvas_background" height="402" width="582" y="-1" x="-1"/>
 </g>
 <g>
  <title>Layer 1</title>
  <path id="svg_1" d="m20,7l-14.4,0c-1.2,0 -1.6,-0.6 -1.6,-1l16,-1.5l0,-1.5c0,-0.6 -0.6,-1.1 -1.2,-1l-15.1,2.7c-1,0.2 -1.7,1 -1.7,2l0,13.3c0,1.1 0.9,2 2,2l16,0c1.1,0 2,-0.9 2,-2l0,-11c0,-1.1 -0.9,-2 -2,-2zm-1.5,9c-0.8,0 -1.5,-0.7 -1.5,-1.5c0,-0.8 0.7,-1.5 1.5,-1.5s1.5,0.7 1.5,1.5c0,0.8 -0.7,1.5 -1.5,1.5z"/>
 </g>
</svg>